<svg xmlns="http://www.w3.org/2000/svg" viewBox="0 0 32 32" role="img" aria-label="TheForge">
  <title>TheForge</title>
  <defs>
    <linearGradient id="forge-flame" x1="10" y1="4" x2="14" y2="28" gradientUnits="userSpaceOnUse">
      <stop stop-color="#fed7aa" />
      <stop offset="0.35" stop-color="#fb923c" />
      <stop offset="1" stop-color="#c2410c" />
    </linearGradient>
  </defs>
  <!-- High-contrast tile (matches dark UI chrome); flame reads like in-app Lucide logo -->
  <rect width="32" height="32" rx="8" fill="#09090b" />
  <rect x="0.5" y="0.5" width="31" height="31" rx="7.5" fill="none" stroke="#3f3f46" stroke-opacity="0.55" />
  <g transform="translate(4 3)">
    <!-- Lucide-compatible flame silhouette (filled) -->
    <path
      fill="url(#forge-flame)"
      d="M8.5 14.5A2.5 2.5 0 0 0 11 12c0-1.38-.5-2-1-3-1.072-2.143-.224-4.054 2-6 .5 2.5 2 4.9 4 6.5 2 1.6 3 3.5 3 5.5a7 7 0 1 1-14 0c0-1.153.433-2.294 1-3a2.5 2.5 0 0 0 2.5 2.5z"
    />
  </g>
</svg>
